<?xml version="1.0" encoding="utf-8"?>
<!-- Generator: Adobe Illustrator 14.0.0, SVG Export Plug-In . SVG Version: 6.00 Build 43363)  -->
<!DOCTYPE svg PUBLIC "-//W3C//DTD SVG 1.1//EN" "http://www.w3.org/Graphics/SVG/1.1/DTD/svg11.dtd">
<svg version="1.1" id="Layer_1" xmlns="http://www.w3.org/2000/svg" xmlns:xlink="http://www.w3.org/1999/xlink" x="0px" y="0px"
	 width="245.667px" height="253px" viewBox="0 0 245.667 253" enable-background="new 0 0 245.667 253" xml:space="preserve">
<g>
	<g id="XMLID_14_">
		<g>
			<path fill="#F3D900" d="M221.303,165.561l18.331-7.627c-7.441,17.104-12.119,20.407-19.852,30.293l-8.412-8.578l-31.656,11.146
				c24.285-17.372,28.063-21.141,37.468-42.281L221.303,165.561z"/>
			<path fill="#F3D900" d="M219.783,188.225l9.004,9.188c0,0.163-9.923,11.737-29.531,23.69
				c-22.582,13.78-58.729,27.33-118.977,12.508c-19.337-5.598-42.159-18.969-60.139-35.479l9.055-9.296l8.358-8.594
				c9.514,8.736,20.656,16.417,31.637,22.053c6.324,3.249,12.574,5.814,18.457,7.521c44.338,10.908,73.006,3.373,92.067-6.445
				c2.531-1.307,4.877-2.637,7.076-3.982c16.33-9.961,24.58-19.617,24.58-19.742L219.783,188.225z"/>
			<path fill="#F3D900" d="M179.714,190.793l31.656-11.146c0,0.125-8.25,9.781-24.58,19.742c-2.199,1.346-4.545,2.676-7.076,3.982
				V190.793z"/>
			<path fill="#F3D900" d="M69.19,191.314v10.98c-10.98-5.636-22.123-13.314-31.637-22.053L69.19,191.314z"/>
			<path fill="#F3D900" d="M69.19,191.314l-31.637-11.072l-8.358,8.594c-7.791-9.979-12.484-13.227-19.925-30.382l18.329,7.626
				l4.125-17.049C41.109,170.171,44.884,173.921,69.19,191.314z"/>
		</g>
		<g>
			<path fill="none" stroke="#1F4375" stroke-width="2" stroke-linecap="round" d="M211.373,179.646
				c0,0.125-8.25,9.781-24.582,19.742c-2.197,1.346-4.543,2.676-7.076,3.982c-19.062,9.816-47.729,17.354-92.066,6.445
				c-5.883-1.707-12.133-4.273-18.457-7.521c-10.98-5.636-22.123-13.314-31.637-22.053"/>
			<path fill="none" stroke="#1F4375" stroke-width="2" stroke-linecap="round" d="M228.787,197.413
				c0,0.163-9.923,11.737-29.531,23.69c-22.582,13.78-58.729,27.33-118.977,12.508c-19.337-5.598-42.159-18.969-60.139-35.479"/>
			<polyline fill="none" stroke="#1F4375" stroke-width="2" stroke-linecap="round" points="20.14,198.132 29.195,188.836 
				37.553,180.242 			"/>
			<polyline fill="none" stroke="#1F4375" stroke-width="2" stroke-linecap="round" points="228.787,197.413 219.783,188.225 
				211.373,179.646 			"/>
			<path fill="none" stroke="#1F4375" stroke-width="2" stroke-linecap="round" d="M29.195,188.836
				c-7.791-9.979-12.484-13.227-19.925-30.382l18.329,7.626l4.125-17.049"/>
			<path fill="none" stroke="#1F4375" stroke-width="2" stroke-linecap="round" d="M31.724,149.031
				c9.385,21.14,13.16,24.89,37.466,42.283"/>
			<line fill="none" stroke="#1F4375" stroke-width="2" stroke-linecap="round" x1="69.19" y1="191.314" x2="69.19" y2="202.295"/>
			<line fill="none" stroke="#1F4375" stroke-width="2" stroke-linecap="round" x1="37.553" y1="180.242" x2="69.19" y2="191.314"/>
			<path fill="none" stroke="#1F4375" stroke-width="2" stroke-linecap="round" d="M219.71,188.318
				c0.018-0.039,0.054-0.057,0.072-0.094c7.731-9.884,12.409-13.188,19.853-30.291l-18.332,7.627l-4.121-17.049"/>
			<path fill="none" stroke="#1F4375" stroke-width="2" stroke-linecap="round" d="M217.182,148.512
				c-9.405,21.141-13.183,24.91-37.468,42.281"/>
			
				<line fill="none" stroke="#1F4375" stroke-width="2" stroke-linecap="round" x1="179.714" y1="190.793" x2="179.714" y2="203.372"/>
			
				<line fill="none" stroke="#1F4375" stroke-width="2" stroke-linecap="round" x1="211.373" y1="179.646" x2="179.714" y2="190.793"/>
		</g>
	</g>
	<g>
		<path fill="#1F4375" d="M37.657,201.447l4.195-5.396l2.036,1.583c0.358,0.278,0.619,0.509,0.781,0.688
			c0.231,0.25,0.388,0.508,0.471,0.771s0.092,0.55,0.027,0.857s-0.201,0.596-0.408,0.864c-0.357,0.459-0.805,0.733-1.344,0.824
			c-0.54,0.092-1.19-0.16-1.954-0.754l-1.384-1.076l-1.706,2.194L37.657,201.447z M40.572,199.172l1.396,1.084
			c0.461,0.359,0.856,0.528,1.183,0.506c0.328-0.021,0.612-0.188,0.854-0.498c0.176-0.227,0.269-0.464,0.28-0.714
			c0.011-0.25-0.057-0.473-0.204-0.669c-0.096-0.125-0.305-0.314-0.629-0.566l-1.38-1.072L40.572,199.172z"/>
		<path fill="#1F4375" d="M42.892,205.447l3.911-5.606l4.055,2.827l-0.462,0.662l-3.313-2.311l-1.198,1.717l3.102,2.164
			l-0.459,0.658l-3.102-2.164l-1.331,1.908l3.442,2.401l-0.461,0.662L42.892,205.447z"/>
		<path fill="#1F4375" d="M48.207,209.115l3.666-5.77l2.558,1.625c0.515,0.326,0.873,0.627,1.074,0.899
			c0.202,0.274,0.3,0.593,0.293,0.957c-0.007,0.364-0.11,0.705-0.313,1.022c-0.26,0.409-0.611,0.67-1.055,0.782
			c-0.443,0.113-0.966,0.031-1.568-0.245c0.141,0.227,0.233,0.42,0.278,0.58c0.093,0.346,0.142,0.736,0.146,1.17l0.007,2.209
			l-0.961-0.611l-0.001-1.686c-0.003-0.488-0.019-0.869-0.046-1.146c-0.027-0.274-0.075-0.485-0.143-0.631
			c-0.068-0.146-0.151-0.271-0.251-0.375c-0.075-0.074-0.211-0.174-0.407-0.299l-0.886-0.563l-1.628,2.563L48.207,209.115z
			 M51.018,206.377l1.642,1.042c0.349,0.222,0.645,0.358,0.887,0.412c0.243,0.053,0.466,0.032,0.669-0.062
			c0.203-0.094,0.364-0.233,0.482-0.42c0.174-0.271,0.217-0.56,0.131-0.861c-0.087-0.301-0.344-0.588-0.771-0.86l-1.826-1.16
			L51.018,206.377z"/>
		<path fill="#1F4375" d="M54.824,210.693l0.775,0.363c-0.138,0.316-0.197,0.605-0.18,0.869s0.127,0.532,0.328,0.805
			c0.2,0.273,0.469,0.508,0.805,0.703c0.299,0.174,0.588,0.282,0.868,0.326c0.279,0.045,0.521,0.021,0.722-0.068
			c0.201-0.088,0.355-0.226,0.461-0.408c0.108-0.186,0.148-0.379,0.121-0.58c-0.026-0.201-0.137-0.42-0.329-0.658
			c-0.123-0.154-0.418-0.454-0.885-0.898c-0.467-0.446-0.776-0.791-0.927-1.033c-0.196-0.311-0.3-0.616-0.311-0.916
			c-0.012-0.299,0.062-0.586,0.22-0.856c0.173-0.298,0.42-0.528,0.74-0.688c0.32-0.161,0.682-0.215,1.085-0.16
			c0.403,0.055,0.804,0.197,1.201,0.429c0.438,0.255,0.784,0.55,1.036,0.886c0.253,0.336,0.39,0.692,0.41,1.071
			s-0.063,0.746-0.251,1.101l-0.782-0.379c0.177-0.397,0.204-0.759,0.083-1.084c-0.122-0.326-0.41-0.621-0.864-0.886
			c-0.473-0.274-0.868-0.389-1.185-0.341c-0.317,0.048-0.547,0.193-0.689,0.438c-0.123,0.213-0.148,0.433-0.075,0.658
			c0.071,0.225,0.383,0.594,0.935,1.106c0.553,0.514,0.915,0.893,1.09,1.138c0.251,0.357,0.389,0.707,0.411,1.045
			s-0.059,0.667-0.242,0.983c-0.183,0.313-0.445,0.559-0.787,0.731c-0.342,0.174-0.727,0.24-1.153,0.198
			c-0.426-0.042-0.852-0.185-1.273-0.43c-0.535-0.312-0.938-0.649-1.209-1.015c-0.271-0.367-0.418-0.766-0.441-1.199
			C54.507,211.512,54.604,211.094,54.824,210.693z"/>
		<path fill="#1F4375" d="M59.473,215.904l3.212-6.034l4.363,2.323l-0.379,0.711l-3.564-1.896l-0.984,1.848l3.338,1.777
			l-0.377,0.708l-3.338-1.776l-1.094,2.054l3.705,1.972l-0.379,0.713L59.473,215.904z"/>
		<path fill="#1F4375" d="M66.795,219.689l0.601-7.308l0.882,0.429l-0.569,5.244c-0.045,0.42-0.101,0.807-0.166,1.163
			c0.258-0.29,0.531-0.571,0.82-0.846l3.829-3.662l0.83,0.403l-5.392,4.982L66.795,219.689z"/>
		<path fill="#1F4375" d="M70.782,221.592l2.744-6.261l4.527,1.983l-0.324,0.74l-3.698-1.623l-0.841,1.918l3.464,1.519l-0.322,0.733
			l-3.464-1.518l-0.934,2.131l3.844,1.686l-0.324,0.738L70.782,221.592z"/>
		<path fill="#1F4375" d="M76.827,224.171l2.128-6.497l2.88,0.943c0.579,0.189,1,0.392,1.264,0.607
			c0.263,0.215,0.437,0.5,0.52,0.854s0.066,0.71-0.051,1.068c-0.15,0.461-0.427,0.801-0.829,1.019
			c-0.401,0.218-0.929,0.269-1.58,0.149c0.192,0.185,0.329,0.349,0.413,0.494c0.176,0.313,0.319,0.678,0.431,1.098l0.551,2.138
			l-1.082-0.354l-0.417-1.633c-0.123-0.472-0.232-0.838-0.327-1.099c-0.095-0.261-0.192-0.452-0.294-0.577s-0.213-0.225-0.336-0.301
			c-0.091-0.053-0.246-0.115-0.468-0.188l-0.997-0.328l-0.945,2.886L76.827,224.171z M78.875,220.822l1.849,0.605
			c0.393,0.129,0.713,0.188,0.961,0.18c0.248-0.008,0.46-0.082,0.633-0.224c0.174-0.141,0.296-0.315,0.364-0.526
			c0.101-0.307,0.071-0.596-0.087-0.866c-0.158-0.271-0.478-0.485-0.959-0.644l-2.057-0.673L78.875,220.822z"/>
		<path fill="#1F4375" d="M82.625,226.066l4.394-5.858l0.938,0.267l0.823,7.34l-0.991-0.281l-0.201-2.209l-2.75-0.781l-1.288,1.787
			L82.625,226.066z M85.29,223.904l2.229,0.634l-0.169-2.017c-0.052-0.612-0.078-1.11-0.079-1.496
			c-0.203,0.398-0.44,0.783-0.711,1.156L85.29,223.904z"/>
		<path fill="#1F4375" d="M89.407,227.971l1.604-6.646l0.902,0.218l2.23,6.061l1.26-5.217l0.844,0.203l-1.605,6.645l-0.901-0.217
			l-2.229-6.065l-1.261,5.222L89.407,227.971z"/>
		<path fill="#1F4375" d="M101.39,228.154l0.844,0.398c-0.329,0.692-0.773,1.184-1.332,1.471s-1.188,0.363-1.886,0.226
			c-0.724-0.144-1.282-0.405-1.678-0.789c-0.395-0.384-0.655-0.878-0.782-1.481c-0.126-0.605-0.127-1.229-0.001-1.869
			c0.138-0.697,0.392-1.28,0.761-1.748c0.369-0.467,0.826-0.788,1.372-0.961c0.546-0.174,1.114-0.201,1.706-0.084
			c0.671,0.132,1.201,0.414,1.592,0.845c0.391,0.431,0.614,0.976,0.673,1.629l-0.914,0.034c-0.06-0.52-0.216-0.918-0.468-1.199
			s-0.603-0.466-1.051-0.555c-0.515-0.102-0.971-0.063-1.365,0.117c-0.395,0.179-0.703,0.463-0.926,0.852
			c-0.222,0.389-0.376,0.805-0.464,1.247c-0.112,0.569-0.127,1.084-0.044,1.543c0.082,0.458,0.278,0.827,0.588,1.106
			c0.309,0.278,0.668,0.459,1.077,0.539c0.497,0.099,0.946,0.037,1.347-0.182S101.158,228.693,101.39,228.154z"/>
		<path fill="#1F4375" d="M103.07,230.887l1.031-6.759l4.887,0.746l-0.122,0.798l-3.992-0.609l-0.315,2.069l3.738,0.571
			l-0.121,0.793l-3.738-0.571l-0.352,2.3l4.148,0.633l-0.121,0.797L103.07,230.887z"/>
		<path fill="#1F4375" d="M117.328,230.207l0.881,0.309c-0.255,0.723-0.646,1.258-1.171,1.603s-1.144,0.485-1.853,0.422
			c-0.733-0.065-1.317-0.269-1.75-0.608c-0.433-0.339-0.744-0.804-0.934-1.392s-0.255-1.207-0.196-1.856
			c0.063-0.709,0.254-1.315,0.572-1.82c0.318-0.502,0.739-0.869,1.264-1.098c0.524-0.229,1.088-0.317,1.688-0.265
			c0.681,0.062,1.238,0.286,1.672,0.674s0.713,0.905,0.84,1.55l-0.906,0.129c-0.113-0.508-0.311-0.891-0.591-1.144
			c-0.279-0.253-0.647-0.399-1.103-0.44c-0.523-0.047-0.972,0.041-1.346,0.26s-0.651,0.533-0.831,0.943
			c-0.181,0.41-0.291,0.84-0.331,1.289c-0.052,0.579-0.013,1.092,0.118,1.539c0.13,0.447,0.363,0.793,0.7,1.039
			c0.337,0.246,0.713,0.387,1.128,0.424c0.505,0.045,0.945-0.062,1.321-0.322C116.876,231.18,117.153,230.77,117.328,230.207z"/>
		<path fill="#1F4375" d="M119.171,229.42c0.045-1.134,0.385-2.009,1.02-2.626c0.634-0.617,1.433-0.907,2.396-0.869
			c0.631,0.025,1.193,0.198,1.688,0.521s0.863,0.757,1.107,1.306s0.354,1.166,0.326,1.849c-0.027,0.693-0.191,1.308-0.494,1.844
			c-0.301,0.535-0.713,0.934-1.236,1.193c-0.523,0.262-1.082,0.379-1.676,0.356c-0.643-0.025-1.211-0.204-1.705-0.534
			c-0.494-0.33-0.861-0.77-1.101-1.318C119.256,230.593,119.148,230.02,119.171,229.42z M120.103,229.471
			c-0.032,0.823,0.163,1.48,0.587,1.973s0.97,0.75,1.638,0.777c0.681,0.026,1.25-0.191,1.708-0.652s0.705-1.131,0.739-2.01
			c0.021-0.556-0.053-1.045-0.226-1.467c-0.17-0.422-0.434-0.754-0.785-0.996c-0.352-0.244-0.755-0.373-1.205-0.392
			c-0.64-0.024-1.199,0.172-1.678,0.594C120.403,227.721,120.144,228.443,120.103,229.471z"/>
		<path fill="#1F4375" d="M126.942,233.023l-0.106-6.836l1.361-0.021l1.693,4.813c0.156,0.449,0.271,0.785,0.342,1.006
			c0.074-0.25,0.189-0.616,0.348-1.1l1.563-4.781l1.217-0.02l0.105,6.835l-0.871,0.015l-0.09-5.722l-1.896,5.752l-0.814,0.013
			l-2.067-5.787l0.091,5.818L126.942,233.023z"/>
		<path fill="#1F4375" d="M135.121,232.85l-0.508-6.817l1.357-0.103l1.974,4.707c0.183,0.438,0.315,0.768,0.4,0.985
			c0.059-0.254,0.153-0.627,0.28-1.12l1.279-4.865l1.215-0.09l0.508,6.816l-0.871,0.066l-0.424-5.707l-1.557,5.854l-0.814,0.062
			l-2.402-5.658l0.432,5.805L135.121,232.85z"/>
		<path fill="#1F4375" d="M142.567,232.268l1.724-7.117l0.967-0.125l3.654,6.42l-1.021,0.133l-1.057-1.951l-2.836,0.368
			l-0.479,2.149L142.567,232.268z M144.162,229.23l2.299-0.299l-0.951-1.785c-0.289-0.543-0.51-0.99-0.662-1.344
			c-0.03,0.446-0.096,0.893-0.198,1.342L144.162,229.23z"/>
		<path fill="#1F4375" d="M149.811,231.293l-1.228-6.725l0.912-0.168l4.496,4.636l-0.964-5.28l0.854-0.156l1.227,6.726l-0.912,0.167
			l-4.496-4.641l0.965,5.285L149.811,231.293z"/>
		<path fill="#1F4375" d="M156.818,229.967l-1.592-6.648l2.29-0.547c0.517-0.125,0.919-0.188,1.206-0.188
			c0.402-0.003,0.765,0.077,1.089,0.243c0.422,0.212,0.774,0.527,1.06,0.947c0.283,0.42,0.498,0.926,0.639,1.518
			c0.121,0.505,0.17,0.967,0.146,1.385s-0.099,0.777-0.222,1.077s-0.277,0.549-0.461,0.748c-0.186,0.199-0.422,0.374-0.715,0.522
			c-0.291,0.15-0.639,0.273-1.041,0.369L156.818,229.967z M157.509,228.973l1.42-0.341c0.438-0.104,0.771-0.228,1.002-0.368
			c0.23-0.143,0.4-0.305,0.514-0.488c0.159-0.258,0.254-0.578,0.286-0.959c0.032-0.379-0.012-0.82-0.132-1.322
			c-0.167-0.695-0.409-1.202-0.727-1.521c-0.318-0.318-0.654-0.502-1.013-0.551c-0.258-0.033-0.647,0.012-1.171,0.137l-1.396,0.334
			L157.509,228.973z"/>
		<path fill="#1F4375" d="M162.828,226.236l0.797-0.314c0.137,0.316,0.307,0.559,0.51,0.727c0.205,0.168,0.475,0.273,0.812,0.314
			c0.337,0.042,0.691,0.008,1.063-0.104c0.33-0.098,0.607-0.234,0.832-0.407s0.373-0.364,0.445-0.572s0.08-0.414,0.021-0.616
			c-0.062-0.205-0.175-0.367-0.339-0.486c-0.165-0.117-0.399-0.188-0.705-0.211c-0.196-0.017-0.616-0.008-1.262,0.026
			s-1.106,0.023-1.388-0.034c-0.36-0.07-0.653-0.205-0.88-0.402s-0.383-0.447-0.473-0.748c-0.098-0.331-0.096-0.668,0.007-1.012
			c0.103-0.342,0.313-0.643,0.629-0.898s0.694-0.449,1.136-0.58c0.486-0.145,0.938-0.193,1.355-0.146s0.771,0.192,1.061,0.438
			c0.29,0.245,0.499,0.557,0.629,0.938l-0.813,0.31c-0.168-0.401-0.412-0.669-0.731-0.806c-0.32-0.135-0.732-0.127-1.236,0.021
			c-0.524,0.155-0.879,0.365-1.063,0.628c-0.183,0.263-0.234,0.531-0.152,0.802c0.068,0.235,0.211,0.404,0.426,0.506
			c0.213,0.104,0.695,0.129,1.447,0.08s1.276-0.054,1.574-0.013c0.434,0.063,0.781,0.202,1.043,0.419
			c0.262,0.215,0.444,0.5,0.549,0.85s0.102,0.707-0.008,1.076c-0.107,0.367-0.322,0.691-0.646,0.975
			c-0.322,0.283-0.719,0.492-1.188,0.632c-0.593,0.177-1.115,0.235-1.566,0.183c-0.452-0.054-0.844-0.221-1.176-0.5
			C163.207,227.029,162.969,226.671,162.828,226.236z"/>
		<path fill="#1F4375" d="M171.55,223.514l0.772-0.371c0.158,0.305,0.345,0.535,0.562,0.688c0.216,0.152,0.492,0.238,0.83,0.255
			c0.34,0.017,0.689-0.043,1.055-0.181c0.322-0.121,0.59-0.276,0.801-0.465c0.211-0.189,0.346-0.391,0.403-0.604
			c0.058-0.212,0.049-0.418-0.025-0.615c-0.075-0.201-0.2-0.354-0.372-0.461c-0.174-0.105-0.412-0.16-0.719-0.16
			c-0.197-0.002-0.615,0.037-1.257,0.116c-0.642,0.081-1.103,0.103-1.386,0.066c-0.365-0.046-0.668-0.158-0.907-0.339
			c-0.239-0.18-0.414-0.418-0.524-0.711c-0.121-0.322-0.144-0.658-0.066-1.008c0.078-0.351,0.266-0.664,0.563-0.942
			c0.299-0.278,0.661-0.498,1.092-0.66c0.476-0.179,0.922-0.261,1.342-0.244s0.783,0.136,1.09,0.358
			c0.307,0.224,0.537,0.521,0.693,0.891l-0.789,0.367c-0.194-0.389-0.459-0.639-0.787-0.75c-0.33-0.112-0.74-0.075-1.231,0.109
			c-0.513,0.193-0.851,0.428-1.015,0.703c-0.162,0.276-0.194,0.547-0.094,0.812c0.086,0.229,0.239,0.388,0.461,0.473
			c0.219,0.087,0.703,0.079,1.448-0.024c0.747-0.104,1.271-0.146,1.569-0.125c0.438,0.031,0.794,0.145,1.07,0.341
			s0.479,0.466,0.608,0.81c0.13,0.34,0.152,0.698,0.07,1.072c-0.081,0.375-0.272,0.714-0.575,1.02
			c-0.302,0.305-0.682,0.543-1.138,0.715c-0.579,0.219-1.097,0.316-1.552,0.295c-0.455-0.021-0.856-0.159-1.207-0.414
			C171.986,224.275,171.724,223.938,171.55,223.514z"/>
		<path fill="#1F4375" d="M180.148,215.029l0.829-0.363l1.587,3.617c0.275,0.629,0.424,1.16,0.443,1.593
			c0.021,0.433-0.104,0.847-0.375,1.241c-0.27,0.395-0.705,0.725-1.31,0.99c-0.587,0.256-1.11,0.367-1.571,0.328
			s-0.855-0.215-1.185-0.527c-0.327-0.313-0.637-0.801-0.928-1.465l-1.587-3.616l0.828-0.364l1.586,3.613
			c0.238,0.543,0.465,0.922,0.679,1.135s0.476,0.336,0.782,0.367s0.639-0.031,0.994-0.188c0.609-0.268,0.982-0.596,1.121-0.986
			c0.139-0.389,0.035-0.977-0.311-1.762L180.148,215.029z"/>
		<path fill="#1F4375" d="M188.544,215.857l0.91-0.205c0.166,0.75,0.116,1.408-0.147,1.979c-0.265,0.571-0.713,1.017-1.349,1.337
			c-0.658,0.332-1.26,0.469-1.809,0.409c-0.547-0.06-1.057-0.289-1.527-0.688c-0.473-0.398-0.854-0.89-1.148-1.473
			c-0.321-0.635-0.479-1.251-0.477-1.847c0.004-0.597,0.168-1.13,0.491-1.603c0.324-0.472,0.755-0.844,1.294-1.115
			c0.61-0.31,1.202-0.414,1.775-0.313c0.572,0.102,1.084,0.391,1.531,0.872l-0.699,0.589c-0.366-0.373-0.735-0.592-1.105-0.658
			c-0.371-0.066-0.762,0.002-1.17,0.209c-0.469,0.236-0.804,0.547-1.006,0.931c-0.201,0.384-0.27,0.797-0.206,1.241
			c0.063,0.442,0.197,0.865,0.4,1.268c0.262,0.52,0.565,0.934,0.913,1.245c0.347,0.312,0.729,0.481,1.145,0.511
			c0.415,0.03,0.811-0.049,1.182-0.236c0.453-0.229,0.77-0.552,0.951-0.972C188.673,216.919,188.693,216.428,188.544,215.857z"/>
		<path fill="#1F4375" d="M194.632,212.443l0.897-0.252c0.205,0.74,0.191,1.4-0.042,1.984c-0.232,0.583-0.658,1.053-1.275,1.407
			c-0.639,0.367-1.232,0.535-1.782,0.505c-0.55-0.029-1.07-0.232-1.563-0.605c-0.492-0.373-0.9-0.844-1.226-1.41
			c-0.354-0.616-0.546-1.223-0.574-1.818c-0.026-0.595,0.106-1.137,0.406-1.625c0.298-0.488,0.709-0.883,1.231-1.184
			c0.594-0.34,1.18-0.475,1.756-0.405c0.578,0.069,1.104,0.333,1.578,0.789l-0.668,0.625c-0.387-0.353-0.767-0.552-1.141-0.599
			c-0.375-0.047-0.76,0.043-1.156,0.271c-0.455,0.263-0.773,0.589-0.955,0.983c-0.181,0.394-0.227,0.811-0.14,1.25
			c0.087,0.438,0.243,0.854,0.468,1.244c0.289,0.504,0.615,0.902,0.979,1.194s0.753,0.44,1.17,0.45
			c0.417,0.008,0.806-0.092,1.167-0.299c0.438-0.252,0.739-0.594,0.897-1.021C194.819,213.5,194.811,213.005,194.632,212.443z"/>
		<path fill="#1F4375" d="M197.751,213.359l-3.696-5.752l4.157-2.672l0.438,0.68l-3.396,2.183l1.132,1.761l3.182-2.043l0.435,0.674
			l-3.183,2.045l1.259,1.957l3.53-2.269l0.437,0.679L197.751,213.359z"/>
		<path fill="#1F4375" d="M201.714,208.173l0.652-0.555c0.23,0.255,0.471,0.429,0.717,0.522c0.248,0.092,0.537,0.104,0.869,0.034
			s0.655-0.217,0.973-0.442c0.281-0.199,0.5-0.418,0.656-0.654c0.154-0.237,0.233-0.465,0.235-0.686
			c0.001-0.221-0.06-0.418-0.183-0.59c-0.123-0.175-0.282-0.291-0.477-0.35c-0.195-0.059-0.439-0.049-0.736,0.027
			c-0.189,0.049-0.586,0.192-1.186,0.435c-0.599,0.241-1.04,0.38-1.322,0.417c-0.365,0.05-0.687,0.018-0.963-0.096
			c-0.277-0.114-0.508-0.299-0.688-0.555c-0.2-0.281-0.308-0.602-0.321-0.959c-0.014-0.358,0.087-0.709,0.305-1.055
			c0.217-0.345,0.512-0.65,0.887-0.917c0.412-0.293,0.824-0.485,1.234-0.577c0.41-0.091,0.791-0.068,1.146,0.07
			c0.354,0.138,0.653,0.365,0.897,0.684l-0.669,0.557c-0.288-0.325-0.606-0.5-0.952-0.524c-0.349-0.024-0.736,0.116-1.164,0.42
			c-0.445,0.317-0.713,0.63-0.801,0.938s-0.05,0.578,0.114,0.809c0.142,0.2,0.331,0.313,0.567,0.34
			c0.233,0.028,0.697-0.103,1.395-0.393c0.695-0.291,1.189-0.465,1.484-0.521c0.432-0.08,0.806-0.062,1.123,0.059
			c0.318,0.119,0.582,0.328,0.796,0.628c0.21,0.296,0.323,0.636,0.341,1.019s-0.082,0.76-0.297,1.133
			c-0.215,0.371-0.521,0.698-0.918,0.981c-0.506,0.358-0.979,0.585-1.426,0.681c-0.444,0.096-0.869,0.063-1.272-0.094
			C202.33,208.799,201.99,208.538,201.714,208.173z"/>
		<path fill="#1F4375" d="M206.951,204.425l0.627-0.584c0.241,0.245,0.488,0.408,0.739,0.49s0.541,0.081,0.869-0.004
			c0.328-0.084,0.646-0.247,0.952-0.486c0.271-0.212,0.48-0.44,0.626-0.684s0.213-0.476,0.205-0.696
			c-0.009-0.22-0.078-0.414-0.208-0.58c-0.133-0.169-0.297-0.277-0.493-0.328c-0.196-0.05-0.44-0.029-0.731,0.061
			c-0.189,0.057-0.578,0.219-1.166,0.486c-0.588,0.269-1.021,0.426-1.303,0.477c-0.361,0.066-0.686,0.048-0.967-0.053
			c-0.282-0.102-0.52-0.275-0.713-0.523c-0.213-0.271-0.334-0.586-0.364-0.943c-0.03-0.356,0.056-0.711,0.257-1.065
			c0.2-0.354,0.481-0.673,0.846-0.956c0.398-0.313,0.802-0.521,1.207-0.633c0.404-0.109,0.787-0.104,1.146,0.019
			s0.668,0.336,0.928,0.644l-0.644,0.584c-0.304-0.312-0.628-0.471-0.976-0.479c-0.35-0.008-0.729,0.149-1.145,0.472
			c-0.432,0.338-0.684,0.662-0.758,0.974c-0.073,0.313-0.023,0.579,0.15,0.803c0.15,0.192,0.346,0.298,0.582,0.313
			c0.234,0.019,0.693-0.133,1.375-0.455c0.683-0.322,1.17-0.518,1.461-0.588c0.428-0.101,0.801-0.098,1.125,0.008
			c0.321,0.105,0.597,0.302,0.821,0.591c0.224,0.287,0.353,0.621,0.388,1.003c0.032,0.382-0.049,0.764-0.246,1.145
			s-0.488,0.722-0.873,1.021c-0.487,0.381-0.953,0.629-1.394,0.744s-0.864,0.104-1.276-0.036
			C207.591,205.023,207.242,204.777,206.951,204.425z"/>
	</g>
</g>
<g>
	<g>
		<g id="XMLID_38_">
			<g>
				<path fill="#1F4375" d="M191.662,58.316c0,21.662,0.666,43.227-4.178,61.35c-11.119,40.896-37.745,58.139-62.717,69.436
					c-25.921-10.336-53.074-27.959-64.274-69.885C55.654,101.094,57.6,79.532,57.6,57.87h133.889L191.662,58.316z"/>
			</g>
		</g>
	</g>
	<g>
		<g id="XMLID_37_">
			<g>
				<path fill="#BBC3C6" d="M97.857,103.112l3.782,12.17c-0.254-0.069-0.504-0.14-0.759-0.208l-41.72-11.513
					c0-0.148,6.056,1.64,15.454,1.385C81.733,103.711,88.249,101.268,97.857,103.112z"/>
				<path fill="#1F4375" d="M101.639,115.282l-23.255-0.129c3.144-0.63,6.629-1.642,10.354-1.855
					c3.84-0.222,7.92,0.642,12.142,1.776C101.135,115.143,101.385,115.213,101.639,115.282z"/>
				<path fill="#BBC3C6" d="M59.16,103.561l20.86,5.304l20.86,6.21c-4.222-1.134-8.302-1.999-12.142-1.776
					c-3.726,0.213-7.211,1.225-10.354,1.855l-8.112,0.281l-8.111-0.377C61.383,111.271,61.013,108.798,59.16,103.561z"/>
				<path fill="#BBC3C6" d="M62.161,115.057l16.224,0.096c-1.086,0.212-2.126,0.389-3.122,0.466
					C67.274,116.253,62.161,115.126,62.161,115.057z"/>
				<path fill="#BBC3C6" d="M62.161,115.057L59.16,103.56C61.013,108.798,61.383,111.271,62.161,115.057z"/>
			</g>
		</g>
	</g>
	<g>
		<g id="XMLID_24_">
			<g>
				<path fill="#BBC3C6" d="M104.195,124.946l3.149,10.076c-11.041-3.147-20.941,0.668-27.692,1.574
					c-5.7,0.762-9.075-0.152-9.374-0.152l-5.004-11.05c0-0.129,4.811,1.335,12.647,0.715
					C84.762,125.564,94.511,122.126,104.195,124.946z"/>
			</g>
		</g>
	</g>
	<g>
		<g id="XMLID_23_">
			<g>
				<path fill="#BBC3C6" d="M110.758,145.557l3.634,12.213c-8.372-2.027-16.138,0.515-21.577,0.975
					c-4.797,0.402-7.311,0.059-7.779,0.146l-8.158-11.765c0-0.36,3.783,0.946,9.782,0.381
					C92.888,146.917,101.504,143.462,110.758,145.557z"/>
			</g>
		</g>
	</g>
	<g>
		<g id="XMLID_22_">
			<g>
				<path fill="#BBC3C6" d="M91.854,82.438l3.565,12.506c-11.636-3.744-18.591,1.258-25.222,1.048
					c-7.033-0.216-11.038-1.904-11.038-2.247V82.888c0-0.141,4.485,2.326,11.562,2.245C76.415,85.067,83.326,81.238,91.854,82.438z"
					/>
			</g>
		</g>
	</g>
	<g>
		<g id="XMLID_21_">
			<g>
				<path fill="#BBC3C6" d="M117.429,168.504c2.594,8.237,4.372,11.684,4.814,15.803c-14.601-4.869-19.124-7.865-25.423-14.678
					C96.821,169.007,105.716,166.256,117.429,168.504z"/>
			</g>
		</g>
	</g>
	<polygon fill="#F3D900" points="87.848,61.389 159.685,61.389 124.102,178.467 	"/>
	<g>
		<g id="XMLID_20_">
			<g>
				<path fill="#BBC3C6" d="M188.598,82.973v10.86l-20.392,0.674c-4.338-0.929-9.377-1.565-15.875,0.527l3.572-12.512
					c8.521-1.195,15.432,2.634,21.129,2.697C184.111,85.304,188.598,82.839,188.598,82.973z"/>
				<path fill="#BBC3C6" d="M188.598,103.503l-0.038,0.134c-0.005,0-0.01,0-0.014,0
					C188.569,103.593,188.578,103.545,188.598,103.503z"/>
				<path fill="#BBC3C6" d="M168.208,94.507l11.375-1.549l9.016,0.875c0,0.344-4.008,2.034-11.044,2.247
					C174.625,96.172,171.637,95.247,168.208,94.507z"/>
				<path fill="#BBC3C6" d="M188.598,103.646l-0.043,0.008l0.005-0.017C188.583,103.638,188.598,103.643,188.598,103.646z"/>
				<path fill="#BBC3C6" d="M188.56,103.638l-0.005,0.017l-0.011,0.006c0-0.006,0.002-0.015,0.002-0.023
					C188.55,103.638,188.555,103.638,188.56,103.638z"/>
				<path fill="#BBC3C6" d="M188.555,103.655l-2.961,11.495c0.771-3.747,1.141-6.351,2.95-11.488L188.555,103.655z"/>
				<path fill="#BBC3C6" d="M188.546,103.638c0,0.009-0.002,0.017-0.002,0.023l-41.67,11.504c-0.254,0.069-0.504,0.138-0.758,0.209
					l3.781-12.177c9.605-1.845,16.124,0.601,23.236,1.838C182.044,105.279,187.953,103.685,188.546,103.638z"/>
				<path fill="#BBC3C6" d="M146.875,115.166l20.459-6.666l21.211-4.839c-0.75,2.13-1.162,3.896-1.549,5.417
					c-0.547,2.147-0.949,3.878-1.4,6.071l-8.512,0.375l-7.709-0.282c-3.144-0.63-6.635-1.64-10.358-1.859
					C155.18,113.165,151.096,114.028,146.875,115.166z"/>
				<path fill="#BBC3C6" d="M169.375,115.243l7.834-0.045l8.387-0.048c0,0.06-5.108,1.193-13.102,0.56
					C171.498,115.632,170.455,115.458,169.375,115.243z"/>
				<path fill="#BBC3C6" d="M182.484,125.485l-5.009,11.044c0-0.065-0.17-0.055-0.498-0.016l-5.498,0.016l-7.006-0.495
					c-6.45-1.33-14.863-3.548-24.065-0.927l3.15-10.071c9.686-2.823,19.438,0.616,26.275,1.158
					C177.673,126.819,182.484,125.347,182.484,125.485z"/>
				<path fill="#BBC3C6" d="M177.475,136.529l-0.498-0.016C177.305,136.475,177.475,136.463,177.475,136.529z"/>
				<path fill="#BBC3C6" d="M164.473,136.034l12.504,0.479c-1.188,0.149-4.416,0.766-8.878,0.166
					C166.977,136.529,165.768,136.299,164.473,136.034z"/>
				<path fill="#BBC3C6" d="M170.875,147.242l-8.152,11.764c0-0.121-0.516-0.1-1.469-0.061l-4.104-0.03l-4.104-0.278
					c-5.276-0.748-12.234-2.554-19.678-0.757L137,145.668c9.246-2.093,17.864,1.361,24.092,1.95
					C167.087,148.186,170.875,146.877,170.875,147.242z"/>
				<path fill="#1F4375" d="M169.375,115.243l-23.258,0.132c0.256-0.071,0.506-0.14,0.758-0.209c4.223-1.138,8.307-2,12.142-1.782
					C162.74,113.603,166.231,114.612,169.375,115.243z"/>
				<path fill="#1F4375" d="M168.208,94.507l-15.875,0.527C158.83,92.942,163.871,93.579,168.208,94.507z"/>
				<path fill="#1F4375" d="M164.473,136.034l-24.065-0.927C149.61,132.486,158.023,134.704,164.473,136.034z"/>
				<path fill="#BBC3C6" d="M162.722,159.005l-1.469-0.06C162.207,158.904,162.722,158.884,162.722,159.005z"/>
				<path fill="#BBC3C6" d="M153.042,158.635l8.211,0.311c-1.33,0.06-3.517,0.147-6.317-0.09
					C154.333,158.807,153.703,158.729,153.042,158.635z"/>
				<path fill="#1F4375" d="M153.042,158.635l-19.678-0.756C140.809,156.083,147.767,157.889,153.042,158.635z"/>
				<polygon fill="#BBC3C6" points="141.333,168.717 150.936,169.712 141,175.973 125.505,184.396 126.208,181.75 130.328,168.59 
									"/>
				<path fill="#BBC3C6" d="M125.505,184.396l25.431-14.684C144.632,176.531,140.113,179.529,125.505,184.396z"/>
				<path fill="#BBC3C6" d="M150.936,169.712l-20.608-1.122C142.039,166.342,150.936,169.094,150.936,169.712z"/>
				<path fill="#BBC3C6" d="M130.328,168.59l-4.822,15.805C125.951,180.275,127.731,176.832,130.328,168.59z"/>
			</g>
		</g>
	</g>
	<g>
		<polygon fill="#FF0000" points="140.221,74.343 148.227,68.125 147.462,77.481 		"/>
		<polygon fill="#FF0000" points="144.731,76.296 113.161,130.221 110.939,128.949 142.783,75.523 		"/>
		<polygon fill="#FF0000" points="108.007,74.51 100.001,68.292 100.766,77.649 		"/>
		<polygon fill="#FF0000" points="103.498,76.464 135.066,130.391 137.291,129.119 105.448,75.69 		"/>
	</g>
	<g>
		<g id="XMLID_19_">
			<g>
				<path fill="#FF0000" d="M118.718,93.842c0.065-6.327,4.03-9.925,5.558-11.467c-1.968,0-3.429,1.438-4.633,1.859
					c-1.773,0.612-3.002,0.383-4.489,1.289c-1.479,0.899-3.612,1.91-4.837,2.529c-1.197,0-2.561-1.191-2.561-3.147
					c-3.052-1.518-1.842-4.347-0.664-4.891l8.952-7.077c-1.557-4.813,3.354-9.214,7.504-8.704c1.223-0.511,1.766-2.122,3.174-2.474
					c2.682,1.304,5.373,3.293,7.359,6.45c2.215,3.504,3.672,8.339,5.686,12.878c2.181,4.906,5.964,10.024,6.449,14.509
					c0,0.135-2.979,0-6.654,0c5.225,5.881,5.318,9.196,4.395,15.205c-6.951-3.257-9.416-5.653-11.957-9.437
					c-1,4.382-2.166,8.374-6.393,11.349c-3.393-3.425-6.172-7.244-7.227-11.012c-4.729,4.777-6.044,6.04-13.512,8.037
					c0-4.518-0.206-9.243,2.392-12.138c2.456-2.737,6.947-5.279,11.284-3.767L118.718,93.842z"/>
			</g>
			<g>
				<path fill="none" stroke="#FF0000" stroke-linecap="round" d="M107.756,84.904c-3.052-1.518-1.842-4.347-0.664-4.891
					l8.952-7.077"/>
				<path fill="none" stroke="#FF0000" stroke-linecap="round" d="M116.044,72.937c-1.557-4.813,3.354-9.214,7.504-8.704"/>
				<path fill="none" stroke="#FF0000" stroke-linecap="round" d="M123.548,64.233c1.223-0.511,1.766-2.122,3.174-2.474"/>
				<path fill="none" stroke="#FF0000" stroke-linecap="round" d="M126.722,61.759c2.682,1.304,5.373,3.293,7.359,6.45
					c2.215,3.504,3.672,8.339,5.686,12.878c2.181,4.906,5.964,10.024,6.449,14.509"/>
				<path fill="none" stroke="#FF0000" stroke-linecap="round" d="M146.216,95.596c0,0.135-2.979,0-6.654,0"/>
				<path fill="none" stroke="#FF0000" stroke-linecap="round" d="M139.562,95.596c5.225,5.881,5.318,9.196,4.395,15.205"/>
				<path fill="none" stroke="#FF0000" stroke-linecap="round" d="M132,101.364c2.541,3.784,5.006,6.18,11.957,9.437"/>
				<path fill="none" stroke="#FF0000" stroke-linecap="round" d="M125.607,112.712c4.227-2.975,5.393-6.967,6.393-11.349"/>
				<path fill="none" stroke="#FF0000" stroke-linecap="round" d="M125.607,112.712c-3.393-3.425-6.172-7.244-7.227-11.012"/>
				<path fill="none" stroke="#FF0000" stroke-linecap="round" d="M118.38,101.701c-4.729,4.777-6.044,6.04-13.512,8.037"/>
				<path fill="none" stroke="#FF0000" stroke-linecap="round" d="M104.869,109.738c0-4.518-0.206-9.243,2.392-12.138
					c2.456-2.737,6.947-5.279,11.284-3.767"/>
				<path fill="none" stroke="#FF0000" stroke-linecap="round" d="M118.714,94.005c0-0.057,0-0.11,0.004-0.163
					c0.065-6.327,4.03-9.925,5.558-11.467"/>
				<path fill="none" stroke="#FF0000" stroke-linecap="round" d="M107.756,84.904c0,1.957,1.363,3.147,2.561,3.147"/>
				<path fill="none" stroke="#FF0000" stroke-linecap="round" d="M110.317,88.051c1.225-0.619,3.357-1.629,4.837-2.529
					c1.487-0.906,2.716-0.676,4.489-1.289c1.204-0.421,2.665-1.859,4.633-1.859"/>
			</g>
		</g>
	</g>
	<path fill="none" stroke="#FFFFFF" stroke-linecap="round" d="M109.632,86.048c2.223-2.247,4.521-5.47,8.671-7.04"/>
	<path fill="none" stroke="#FFFFFF" stroke-linecap="round" d="M107.74,83.501c0-1.885,1.012-3.408,2.264-3.408"/>
	<path fill="none" stroke="#FFFFFF" stroke-linecap="round" d="M107.74,83.501c0.964,0.186,2.706-0.188,3.688-1.967"/>
	<path fill="none" stroke="#FFFFFF" stroke-linecap="round" d="M111.426,81.534c0-0.789-0.704-1.432-1.578-1.432"/>
	<path fill="none" stroke="#FFFFFF" stroke-linecap="round" d="M111.208,79.008c2.409-2.15,4.171-4.66,7.504-6.218
		c0.873-0.411,2.013-0.625,2.893-0.863"/>
	<path fill="none" stroke="#FFFFFF" stroke-linecap="round" d="M119.157,74.173c0.965,2.55,6.45,1.275,2.447-2.246"/>
	<path fill="none" stroke="#FFFFFF" stroke-linecap="round" d="M126.109,66.197c-0.572,0.95-2.876,2.697-5.616,2.022"/>
	<path fill="none" stroke="#FFFFFF" stroke-linecap="round" d="M116.897,69.418c0,0.413,0.826,0.748,1.851,0.748"/>
	<path fill="none" stroke="#FFFFFF" stroke-linecap="round" d="M118.192,67.244c2.122-1.236,6.229-0.637,8.193-4.081"/>
	<path fill="none" stroke="#FFFFFF" stroke-linecap="round" d="M126.052,70.524c2.724-2.193,3.666-4.807,2.877-7.21"/>
	<path fill="none" stroke="#FFFFFF" stroke-linecap="round" d="M129.089,80.167c1.063-1.938,1.684-2.603,2.076-4.423
		c0.857-3.938,0.315-8.394,0.315-10.242"/>
	<path fill="none" stroke="#FFFFFF" stroke-linecap="round" d="M130.444,82.206c4.562-4.042,3.004-10.39,3.004-13.706"/>
	<path fill="none" stroke="#FFFFFF" stroke-linecap="round" d="M131.056,85.973c4.447-3.092,4.779-8.089,4.727-12.923"/>
	<path fill="none" stroke="#FFFFFF" stroke-linecap="round" d="M132.667,90.357c4.144-4.19,5.004-7.306,4.504-13.487"/>
	<path fill="none" stroke="#FFFFFF" stroke-linecap="round" d="M105.645,107.378c0-6.554,6.285-15.226,12.899-11.856"/>
	<path fill="none" stroke="#FFFFFF" stroke-linecap="round" d="M107.369,106.478c1.604-5.039,4.448-8.988,8.229-10.056"/>
	<line fill="none" stroke="#FFFFFF" stroke-linecap="round" x1="109.762" y1="105.466" x2="116.71" y2="97.151"/>
	<path fill="none" stroke="#FF0000" stroke-width="1.5" stroke-linecap="round" d="M122.904,93.968"/>
	<path fill="none" stroke="#FF0000" stroke-width="1.5" stroke-linecap="round" d="M115.454,101.776"/>
	<line fill="none" stroke="#FFFFFF" stroke-linecap="round" x1="112.267" y1="105.639" x2="119.216" y2="97.326"/>
	<path fill="none" stroke="#FFFFFF" stroke-linecap="round" d="M133.003,100.409c2.276,3.429,4.474,6.518,10.004,7.53"/>
	<path fill="none" stroke="#FFFFFF" stroke-linecap="round" d="M138.951,96.533c2.545,2.011,3.68,4.923,4.156,8.215
		c0.16,1.097,0.323,2.317,0.104,3.217"/>
	<line fill="none" stroke="#FFFFFF" stroke-linecap="round" x1="143.208" y1="107.965" x2="135.281" y2="96.533"/>
	<path fill="none" stroke="#FFFFFF" stroke-linecap="round" d="M125.986,110.253c5.24-4.731,1.895-13.383,4.234-13.383"/>
	<path fill="none" stroke="#FFFFFF" stroke-linecap="round" d="M125.863,110.321c-5.237-4.73-1.895-13.384-4.234-13.384"/>
	<line fill="none" stroke="#FFFFFF" stroke-linecap="round" x1="125.863" y1="110.132" x2="125.863" y2="95.521"/>
	<path fill="none" stroke="#FFFFFF" stroke-linecap="round" d="M134.798,95.521c5.636-3.97,3.854-12.657,3.854-14.679"/>
	<g>
		<g id="XMLID_18_">
			<g>
				<path fill="#1F4375" d="M122.144,12.661l0.039-0.037c0.445,0.453,0.596,0.82,1.333,0.82l0.397-2.955l0.854,2.921
					c0.738,0,0.884-0.366,1.333-0.813l4.081-4.797l-2.376,6.665c-0.445,1.799,1.483,2.324,2.041,1.311l4.116-4.159l-0.668,6.296
					c0,1.2,0.668,2.019,1.848,0.373l6.975-7.038l-4.449,10.258c0,2.027,0.442,2.171,1.926,0.675l7.27-6.593l-7.716,10.265
					c-0.795,1.593,0.604,1.052,1.413,0.522l16.309-10.634L140.037,29.52c-1.927,1.953,0.269,2.52,2.225,1.201l17.502-8.087
					l-10.807,6.646c-1.428,0.621-0.521,1.969,1.201,1.217l22.907-7.863l-18.272,8.538c-3.084,1.656-4.033,3.6,0.924,2.134
					l16.459-3.37l-17.457,6.181l27.801-4.347l-37.811,8.692l0.022,19.413h-41.089V40.639L65.831,31.95l27.799,4.345l-17.46-6.18
					l16.461,3.37c4.959,1.464,4.012-0.479,0.924-2.134l-18.271-8.539l22.908,7.862c1.721,0.753,2.631-0.596,1.205-1.216
					l-10.805-6.646l17.494,8.089c1.955,1.318,4.15,0.751,2.225-1.201L91.484,15.923l16.306,10.632
					c0.813,0.53,2.205,1.073,1.408-0.521l-7.706-10.265l7.264,6.594c1.481,1.495,1.926,1.346,1.926-0.677l-4.448-10.256l6.97,7.036
					c1.187,1.652,1.855,0.825,1.855-0.372l-0.669-6.292l4.114,4.156c0.556,1.012,2.485,0.488,2.039-1.31l-2.374-6.668
					L122.144,12.661z"/>
			</g>
		</g>
	</g>
	<g>
		<path fill="none" stroke="#FF0000" stroke-linecap="round" d="M107.974,52.476"/>
		<g>
			<g id="XMLID_17_">
				<g>
					<path fill="#BBC3C6" d="M123.895,33.995c10.871-4.633,17.754,0.203,17.638,0.615l0.196,20.046
						c-1.069-0.532-5.155-2.554-10.067-2.352c-2.287,0.1-5.174,1.101-7.104,2.149l-0.569-0.786L123.895,33.995z"/>
				</g>
			</g>
		</g>
		<g>
			<g id="XMLID_16_">
				<g>
					<path fill="#BBC3C6" d="M106.729,34.613l-0.233,19.983c0.969-0.546,4.389-2.417,8.983-2.401
						c2.603,0.003,5.582,1.174,8.707,2.473l0.332-0.117l0.231-20.211C113.626,29.626,106.826,34.583,106.729,34.613z"/>
				</g>
			</g>
		</g>
		<g>
			<g>
				<path fill="none" stroke="#1F4375" stroke-linecap="round" d="M110.37,37.475c0.369-0.372,4.841-2.36,10.063-0.675"/>
				<path fill="none" stroke="#1F4375" stroke-linecap="round" d="M110.37,39.826c0.369-0.371,4.841-2.36,10.063-0.672"/>
				<path fill="none" stroke="#1F4375" stroke-linecap="round" d="M110.37,42.18c0.369-0.371,4.841-2.36,10.063-0.674"/>
				<path fill="none" stroke="#1F4375" stroke-linecap="round" d="M110.37,44.536c0.369-0.373,4.841-2.36,10.063-0.674"/>
				<path fill="none" stroke="#1F4375" stroke-linecap="round" d="M110.37,46.889c0.369-0.375,4.841-2.36,10.063-0.675"/>
				<path fill="none" stroke="#1F4375" stroke-linecap="round" d="M110.37,49.242c0.369-0.371,4.841-2.36,10.063-0.674"/>
			</g>
			<path fill="none" stroke="#1F4375" stroke-linecap="round" d="M123.155,52.476V35.171c-7.617-2.921-15.181,0.301-15.181,0.675
				v16.629"/>
			<path fill="none" stroke="#1F4375" stroke-linecap="round" d="M107.974,52.476c0,0,6.791-4.214,15.181,0"/>
		</g>
		<g>
			<g>
				<path fill="none" stroke="#1F4375" stroke-linecap="round" d="M138.109,37.475c-0.37-0.372-4.84-2.36-10.064-0.675"/>
				<path fill="none" stroke="#1F4375" stroke-linecap="round" d="M138.109,39.826c-0.37-0.371-4.84-2.36-10.064-0.672"/>
				<path fill="none" stroke="#1F4375" stroke-linecap="round" d="M138.109,42.18c-0.37-0.371-4.84-2.36-10.064-0.674"/>
				<path fill="none" stroke="#1F4375" stroke-linecap="round" d="M138.109,44.536c-0.37-0.373-4.84-2.36-10.064-0.674"/>
				<path fill="none" stroke="#1F4375" stroke-linecap="round" d="M138.109,46.889c-0.37-0.375-4.84-2.36-10.064-0.675"/>
				<path fill="none" stroke="#1F4375" stroke-linecap="round" d="M138.109,49.242c-0.37-0.371-4.84-2.36-10.064-0.674"/>
			</g>
			<path fill="none" stroke="#1F4375" stroke-linecap="round" d="M125.323,52.476V35.171c7.618-2.921,15.181,0.301,15.181,0.675
				v16.629"/>
			<path fill="none" stroke="#1F4375" stroke-linecap="round" d="M140.501,52.476c0,0-6.791-4.214-15.18,0"/>
		</g>
	</g>
	<path fill="none" stroke="#1F4375" stroke-width="0.1" d="M142.117,54.34"/>
	<path fill="none" stroke="#1F4375" stroke-width="0.1" d="M106.215,54.739"/>
	<g id="XMLID_15_">
		<g>
			<path fill="#FFFFFF" d="M134,25.173l-1.838,5.333c-9.005-5.393-15.678,0.137-15.678,0.225l-2.562-5.109l3.839,0.839l2.062-3.37
				l1.884,1.913l2.396-3.039l2.529,3.068l1.914-1.942l2.279,3.04L134,25.173z"/>
			<polygon fill="#FFFFFF" points="135.855,20.333 131.761,24.471 128.96,20.633 126.591,22.317 124.108,19.431 124.102,19.431 
				121.616,22.317 119.242,20.633 116.447,24.471 112.347,20.333 116.281,22.282 118.503,17.86 121.357,20.07 124.106,16.593 
				126.85,20.07 129.707,17.86 131.929,22.282 			"/>
		</g>
	</g>
</g>
</svg>
